<svg height="512" viewBox="0 0 60 60" width="512" xmlns="http://www.w3.org/2000/svg"><g id="Page-1" fill="none" fill-rule="evenodd"><g id="020---House-Agreement" fill="rgb(0,0,0)" fill-rule="nonzero"><path id="Shape" d="m60 21.93c-.0034715-.6275258-.3133875-1.2137525-.83-1.57-.5595567-.3775841-1.2665108-.4631627-1.9-.23l-10.27 3.87v-5.74l.31.21c.4948755.3473743 1.085381.5325624 1.69.53.9924637.0004336 1.9209121-.4899968 2.48-1.31.9291814-1.3650201.580565-3.2243074-.78-4.16l-19-13c-.4999666-.34464844-1.092753-.52945832-1.7-.53-.607247.00054168-1.2000334.18535156-1.7.53l-19 13c-.66080944.4481425-1.11571421 1.1412174-1.26398997 1.9257651s.02231127 1.5958375.47398997 2.2542349c.56557639.8153417 1.4977347 1.2982671 2.49 1.29.6027816.0003864 1.1917006-.1808194 1.69-.52l.31-.22v6l-10.25-4.11c-.61583049-.2491173-1.31516551-.1761981-1.86635748.1946037-.55119197.3708019-.88229797.9910885-.88364252 1.6553963v27c0 1.1045695.8954305 2 2 2h.75c1.1180631-.0070605 2.13942996-.6352974 2.65-1.63l.84-1.67 1.76.82c-.58830629 1.5571176.12793043 3.3040365 1.64 4 .4166899.1930672.8707603.292075 1.33.29.3903034-.0025258.7767844-.0771098 1.14-.22.3264191.8365934.9644582 1.5140618 1.78 1.89.4585394.2087788.9561723.317849 1.46.32.4165949.0007107.8298939-.0738186 1.22-.22.3165716.8854251.9761046 1.6062261 1.83 2 .4570138.2133234.9556572.3226151 1.46.32.3599601-.0019777.7174741-.0593148 1.06-.17v.05c.2748381.7482066.8361358 1.3562791 1.56 1.69 1.3132649.6006446 2.8681034.180418 3.7-1l2.37 1.91c.8802473.6651241 2.0371765.8399023 3.0746192.4644853s1.8146119-1.250083 2.0653808-2.3244853c1.0709625.3117809 2.2264835.0036419 3-.8.5013229-.4943049.8128305-1.1491788.88-1.85.1431845.0092361.2868155.0092361.43 0 1.825378.0042128 3.3763937-1.3337513 3.64-3.14.3964901.1339124.811539.2047744 1.23.21 1.0165937.0026647 1.9923182-.3999962 2.711161-1.118839s1.1215037-1.6945673 1.118839-2.711161c-.0029023-.5016715-.1048529-.9978308-.3-1.46l6.36-2.65 1.86 3.44c.5259739.9612928 1.5342208 1.5593404 2.63 1.56h.75c1.0778004.0006603 1.9622772-.8528598 2-1.93zm-48.44-5.1c-.4556442.311997-1.0779346.1955974-1.39-.26-.1500783-.2228912-.20413976-.4968026-.15-.76.0495384-.2553275.1966057-.4813089.41-.63l19-13c.1653537-.12042141.3654759-.1836179.57-.18.203908.00048276.4027955.06328932.57.18l19 13c.4493989.3115419.5652198.9262836.26 1.38-.3120654.4555974-.9343558.571997-1.39.26l-17.87-12.22c-.3427946-.23780708-.7972054-.23780708-1.14 0zm18.44-10.2 15 10.27v8.1c-1.0266851.8426181-1.3044189 2.2986164-.66 3.46l1 1.86-2.7 1c-.9227078.3585267-1.9628831.2387942-2.78-.32l-4.86-3.59v-5.41c0-1.1045695-.8954305-2-2-2h-6c-1.1045695 0-2 .8954305-2 2v6.53c-.3780959.5251031-.7125474 1.0802925-1 1.66-1.0807517.098782-2.1533343.2725337-3.21.52-.5876041.1460802-1.1863307.2430806-1.79.29-1.3255587-.1581587-2.6161003-.533159-3.82-1.11l.48-1c.6222621-1.2107575.3513006-2.688729-.66-3.6v-8.39zm3 19.42c-1.9261072-.9871854-4.2426898-.8134417-6 .45v-4.5h6zm-30.25 22.95h-.75v-27l11.38 4.62c.2577653.1039251.4606531.3104359.56.57.1046225.2751813.0826724.5824826-.06.84l-10.26 20.44c-.17153271.3222118-.50500354.5253607-.87.53zm7.69 1.67c-.58957541-.27189-.84875284-.9689879-.58-1.56l1.14-2.4c.27189-.5895754.9689879-.8487528 1.56-.58.2858371.1262023.5066604.3651258.61.66.1194746.2915689.1194746.6184311 0 .91l-1.17 2.4c-.1303648.2832788-.3684206.5027953-.6613175.6098153s-.6163974.0926876-.8986825-.0398153zm5.39 2c-.3642987.1544861-.7757013.1544861-1.14 0-.3636431-.1619554-.6453879-.4653729-.78-.84-.1495444-.3687484-.1495444-.7812516 0-1.15l1.72-3.68c.1656944-.3609537.4677783-.6414602.84-.78.1670621-.0589398.3428469-.0893641.52-.09.2167803-.0011995.4314016.0430874.63.13.3615973.1698235.641802.4751748.78.85.1550191.367661.1550191.782339 0 1.15l-1.72 3.64c-.1698235.3615973-.4751748.641802-.85.78zm3.4 2c-.7513948-.3527689-1.0808214-1.2431111-.74-2l1.26-2.67c.1683425-.3590294.4695015-.638677.84-.78.1670621-.0589398.3428469-.0893641.52-.09.2181136-.0037836.4340172.044195.63.14.3629569.1629136.6443816.4659863.78.84.1391942.3743757.1211619.789118-.05 1.15l-1.16 2.54-.08.17c-.1654313.3648184-.4699098.6483122-.8455934.7873152-.3756836.1390029-.7913585.1219658-1.1544066-.0473152zm4.09 1.88c-.2406358-.1104629-.4276401-.3118522-.52-.56-.1027779-.2463777-.1027779-.5236223 0-.77l.31-.67.93-2c.1801994-.359781.5584885-.5765092.96-.55.1448664-.0007765.2881718.0299318.42.09.2461187.1089852.4379093.3125875.5320084.564773.094099.2521855.0825599.5316571-.0320084.775227l-1.25 2.71c-.1144525.2434134-.3221387.4304564-.5761627.5188944-.254024.0884379-.5329648.0708133-.7738373-.0488944zm20.84-7.19c-.676154.682493-1.7663379.7218972-2.49.09l-4.86-4.26-1.15-1c-.100831-.0911925-.2202431-.159428-.35-.2-.0498808-.0048817-.1001192-.0048817-.15 0-.202434-.0390758-.411998-.0146267-.6.07-.1159931.0621544-.2207722.1432737-.31.24-.1759662.1890765-.2663779.4422292-.25.7-.0042398.0298502-.0042398.0601498 0 .09.0328276.2263288.1422411.4345673.31.59l4.77 4.18c.6793102.6351275.7151275 1.7006898.08 2.38s-1.7006898.7151275-2.38.08l-.11-.11-4-4c-.3921222-.3921221-1.0278778-.3921221-1.42 0-.3921221.3921222-.3921221 1.0278778 0 1.42l4 4c.2113102.2085668.3302565.4930957.3302565.79s-.1189463.5814332-.3302565.79c-.4466517.4203551-1.1433483.4203551-1.59 0l-.86-.87-1.12-1.12c-.1877666-.1893127-.4433625-.2957983-.71-.2957983s-.5222334.1064856-.71.2957983c-.1893127.1877666-.2957983.4433625-.2957983.71s.1064856.5222334.2957983.71l1.12 1.12c.2454821.2346756.3830121.5604046.38.9-.0208247.4637333-.2910843.8798473-.7062779 1.0874442-.4151937.2075968-.9102407.174136-1.2937221-.0874442l-2.66-2.06.62-1.36c.3392034-.7248559.374726-1.5551959.0986683-2.3063731-.2760576-.7511772-.8408092-1.3609164-1.5686683-1.6936269-.5321994-.2405045-1.1230258-.3204398-1.7-.23-.0346303-.2002577-.0847815-.397519-.15-.59-.58858-1.613227-2.2659366-2.5559439-3.95-2.22-.127067-1.0598604-.7321843-2.0032882-1.6424897-2.5607772-.9103055-.557489-2.0256846-.6677271-3.0275103-.2992228-.4873337.1849075-.9278214.4751513-1.29.85-.2972747-.3789918-.6814351-.6808321-1.12-.88-1.593368-.7366477-3.48225736-.0428614-4.22 1.55l-.37.82-1.64-.78 7.14-14.22c1.4851495.7096717 3.082165 1.1562947 4.72 1.32.7324592-.044442 1.4590489-.1582856 2.17-.34.56-.12 1.16-.24 1.79-.34l-1.64 3.68c-.7638359 1.7415284-.0240677 3.7758911 1.68 4.62h.1c.4681589.2244363.9808238.3406403 1.5.34 1.0265165.0043159 2.0043581-.4371723 2.68-1.21l3.95-4.4 12.85 11.41c.3790292.3329698.6028396.8083327.618006 1.3126164.0151664.5042836-.179672.9922375-.538006 1.3473836zm1-4.39-14.5-12.72c-.416915-.335802-1.024335-.2837133-1.3779907.1181682s-.3280933 1.0109946.0579907 1.3818318l.36.32-3.94 4.39c-.4693147.5360507-1.2393329.6916927-1.88.38h-.07c-.7007662-.3981904-.9894813-1.2600267-.67-2l2.32-5.14c.5469846-1.2140599 1.3325617-2.3057059 2.31-3.21 1.3268045-1.23004 3.3391765-1.3474284 4.8-.28l6.09 4.44c1.3556759.9730067 3.1074038 1.2055702 4.67.62l3-1.11 5.47 10.11zm12.11 2c-.3581373.0091834-.6938251-.173919-.88-.48l-10.27-19c-.1107533-.1989793-.1290182-.4364229-.05-.65.0958082-.2436187.2929405-.4334499.54-.52l11.39-4.39v25.07z"/><path id="Shape" d="m30 18c2.209139 0 4-1.790861 4-4s-1.790861-4-4-4-4 1.790861-4 4 1.790861 4 4 4zm0-6c1.1045695 0 2 .8954305 2 2s-.8954305 2-2 2-2-.8954305-2-2 .8954305-2 2-2z"/></g></g></svg>