<?xml version="1.0" encoding="UTF-8"?>
<svg xmlns="http://www.w3.org/2000/svg" viewBox="0 0 64 64" width="512" height="512"><g id="_05-Contract" data-name="05-Contract"><path d="M10,47a.99974.99974,0,0,1,1-1H26a1,1,0,0,1,0,2H11A.99974.99974,0,0,1,10,47Zm23-6a.99974.99974,0,0,0-1-1H21a1,1,0,0,0,0,2H32A.99974.99974,0,0,0,33,41ZM11,42h6a1,1,0,0,0,0-2H11a1,1,0,0,0,0,2ZM22.78418,55a.99974.99974,0,0,1-1,1H9a5.00588,5.00588,0,0,1-5-5V7A5.00588,5.00588,0,0,1,9,2H35.34277a4.968,4.968,0,0,1,3.53614,1.46436l5.65625,5.65722A4.9679,4.9679,0,0,1,46,12.65674V28.34326a1,1,0,0,1-2,0V12.65674A2.96076,2.96076,0,0,0,43.91962,12H39a3.00328,3.00328,0,0,1-3-3V4.07794A3.01443,3.01443,0,0,0,35.34277,4H9A3.00328,3.00328,0,0,0,6,7V51a3.00328,3.00328,0,0,0,3,3H21.78418A.99974.99974,0,0,1,22.78418,55ZM38,5.4137V9a1.001,1.001,0,0,0,1,1h3.58557ZM58.87891,31.53564l-1.79035,1.79a2.94749,2.94749,0,0,1-.79559,2.796l-.87854.87854.60022.6a3.36554,3.36554,0,0,1,.00586,4.75293L48.709,49.70508a.9999.9999,0,1,1-1.418-1.41016l7.31152-7.35254a1.36626,1.36626,0,0,0-.002-1.92871l-.6001-.59967L33.707,58.707a.99678.99678,0,0,1-.39062.2417l-9,3a.99985.99985,0,0,1-1.26465-1.26514l3-9A1.00259,1.00259,0,0,1,26.293,51.293L48.87891,28.707v-.00049a2.99535,2.99535,0,0,1,2.79272-.79217l1.79321-1.79279a3.92021,3.92021,0,0,1,5.41407,0A3.83353,3.83353,0,0,1,58.87891,31.53564ZM37.41418,43.00012,42,47.58594,54.87891,34.707a.999.999,0,0,0,0-1.41357L51.707,30.12109a1.00053,1.00053,0,0,0-1.41406.00049ZM33,56.58594,40.58594,49l-4.58588-4.58588L28.41406,52Zm-7.41895,2.833,5.56788-1.856L27.437,53.85107ZM57.46484,27.53564a1.87123,1.87123,0,0,0-2.58593,0l-1.46454,1.46424L56.00012,31.586l1.46472-1.46442A1.83071,1.83071,0,0,0,57.46484,27.53564ZM33.94141,36H16a.99974.99974,0,0,1-1-1V24.42358a.99562.99562,0,0,1-1.37207-.19653L11.208,21.08691a1.00034,1.00034,0,0,1,.18261-1.40283l11.78028-9.062a3.00106,3.00106,0,0,1,3.6582,0l11.78028,9.062a1.00034,1.00034,0,0,1,.18261,1.40283L36.37207,24.227a.99921.99921,0,0,1-1.40137.18213l-.02929-.02252V35A.99974.99974,0,0,1,33.94141,36ZM14.60254,22.21484l9.78808-7.53076a.99848.99848,0,0,1,1.21876,0l9.78808,7.53076,1.19922-1.55615L25.61035,12.207a1.00367,1.00367,0,0,0-1.2207,0L13.40332,20.65869ZM27,27H22.94141v7H27Zm5.94141,7V22.848L25,16.73828,17,22.893V34h3.94141V26a.99973.99973,0,0,1,1-1H28a.99974.99974,0,0,1,1,1v8Z"/></g></svg>
